HIERARCHY
ROOT Hips
{
 OFFSET 0.000000 0.000000 0.000000
 CHANNELS 6 Xposition Yposition Zposition Yrotation Xrotation Zrotation
 JOINT Chest
 {
  OFFSET 0.000000 10.101222 -0.056779
  CHANNELS 3 Yrotation Xrotation Zrotation
  JOINT Chest2
  {
   OFFSET 0.000000 8.297218 0.103137
   CHANNELS 3 Yrotation Xrotation Zrotation
   JOINT Chest3
   {
    OFFSET 0.000000 7.493411 0.000000
    CHANNELS 3 Yrotation Xrotation Zrotation
    JOINT Chest4
    {
     OFFSET 0.000000 7.493411 0.000000
     CHANNELS 3 Yrotation Xrotation Zrotation
     JOINT Neck
     {
      OFFSET 0.000000 10.747351 0.000000
      CHANNELS 3 Yrotation Xrotation Zrotation
      JOINT Head
      {
       OFFSET 0.000000 7.717153 0.188667
       CHANNELS 3 Yrotation Xrotation Zrotation
       End Site
       {
        OFFSET 0.000000 14.853047 0.068983
       }
      }
     }
     JOINT RightCollar
     {
      OFFSET -2.766550 6.061559 0.000000
      CHANNELS 3 Yrotation Xrotation Zrotation
      JOINT RightShoulder
      {
       OFFSET -14.830725 0.000000 0.000000
       CHANNELS 3 Yrotation Xrotation Zrotation
       JOINT RightElbow
       {
        OFFSET -28.959634 0.000000 0.000000
        CHANNELS 3 Yrotation Xrotation Zrotation
        JOINT RightWrist
        {
         OFFSET -23.742631 0.000000 0.003006
         CHANNELS 3 Yrotation Xrotation Zrotation
         End Site
         {
          OFFSET -17.766445 0.000000 0.000000
         }
        }
       }
      }
     }
     JOINT LeftCollar
     {
      OFFSET 2.766550 6.061559 0.000000
      CHANNELS 3 Yrotation Xrotation Zrotation
      JOINT LeftShoulder
      {
       OFFSET 14.830725 0.000000 0.000000
       CHANNELS 3 Yrotation Xrotation Zrotation
       JOINT LeftElbow
       {
        OFFSET 28.959634 0.000000 0.000000
        CHANNELS 3 Yrotation Xrotation Zrotation
        JOINT LeftWrist
        {
         OFFSET 23.742631 0.000000 0.003006
         CHANNELS 3 Yrotation Xrotation Zrotation
         End Site
         {
          OFFSET 17.766445 0.000000 0.000000
         }
        }
       }
      }
     }
    }
   }
  }
 }
 JOINT RightHip
 {
  OFFSET -8.655184 0.278217 0.028389
  CHANNELS 3 Yrotation Xrotation Zrotation
  JOINT RightKnee
  {
   OFFSET 0.000000 -47.671744 -0.001158
   CHANNELS 3 Yrotation Xrotation Zrotation
   JOINT RightAnkle
   {
    OFFSET 0.000000 -42.492694 -0.036854
    CHANNELS 3 Yrotation Xrotation Zrotation
    JOINT RightToe
    {
     OFFSET 0.000000 -5.741774 14.901460
     CHANNELS 3 Yrotation Xrotation Zrotation
     End Site
     {
      OFFSET 0.000000 -1.778666 8.212983
     }
    }
   }
  }
 }
 JOINT LeftHip
 {
  OFFSET 8.655184 0.278217 0.028389
  CHANNELS 3 Yrotation Xrotation Zrotation
  JOINT LeftKnee
  {
   OFFSET 0.000000 -47.671744 -0.001158
   CHANNELS 3 Yrotation Xrotation Zrotation
   JOINT LeftAnkle
   {
    OFFSET 0.000000 -42.492694 -0.036854
    CHANNELS 3 Yrotation Xrotation Zrotation
    JOINT LeftToe
    {
     OFFSET 0.000000 -5.741774 14.901460
     CHANNELS 3 Yrotation Xrotation Zrotation
     End Site
     {
      OFFSET 0.000000 -1.778666 8.212983
     }
    }
   }
  }
 }
}
MOTION
Frames: 9
Frame Time: 0.004167
736.606991 96.884743 904.774875 88.357803 -9.971591 -3.271263 -0.953346 10.974320 -1.633241 -0.336304 -2.759953 -0.674348 -0.336242 2.530038 -0.705385 -0.249219 1.897921 -0.527560 3.502719 16.013134 -1.365118 7.014423 -6.283222 -3.809710 2.593367 -6.010988 -4.498382 22.947288 -19.631375 67.208680 109.010376 10.650146 10.281195 -21.368836 15.041499 7.462102 0.207409 -1.326647 -6.918450 -11.478259 3.433158 -74.815783 -10.227061 -41.580429 -93.348866 -26.164219 -35.677252 10.214670 3.531470 18.272198 4.419339 -4.898557 -1.001408 1.051816 -13.754589 -3.013563 -3.586321 -0.114606 -3.686864 4.523967 3.031645 16.027578 1.306834 -9.929455 -7.387195 -4.399472 20.951682 -5.992921 6.701792 0.000000 0.000000 0.000000
736.607032 96.884098 904.774015 88.356372 -9.993241 -3.271615 -0.960252 10.982130 -1.627541 -0.339643 -2.756471 -0.671427 -0.339581 2.533519 -0.702772 -0.251730 1.900534 -0.525585 3.504353 16.020960 -1.373562 7.020044 -6.267992 -3.825462 2.585780 -6.003999 -4.493144 22.976243 -19.642594 67.237599 108.927503 10.636815 10.273717 -21.335517 14.969907 7.420248 0.202754 -1.345614 -6.905437 -11.487079 3.456362 -74.797859 -10.232260 -41.639454 -93.340449 -26.171625 -35.653342 10.268871 3.523072 18.293227 4.421742 -4.894301 -0.998646 1.044279 -13.752520 -3.017202 -3.587870 -0.114590 -3.683307 4.529939 3.058087 16.056204 1.313631 -9.938810 -7.401932 -4.396388 20.940019 -5.987185 6.705025 0.000000 -0.000000 0.000000
736.607113 96.883406 904.773068 88.352852 -10.015595 -3.271868 -0.966648 10.990009 -1.621762 -0.342759 -2.752960 -0.668498 -0.342699 2.537027 -0.700131 -0.254074 1.903167 -0.523590 3.506422 16.029061 -1.381705 7.026347 -6.252244 -3.840792 2.578509 -5.996998 -4.488093 23.014041 -19.651765 67.265292 108.840958 10.634188 10.258991 -21.304593 14.899932 7.375688 0.198648 -1.363651 -6.892918 -11.491492 3.479221 -74.781483 -10.237333 -41.695507 -93.332605 -26.177680 -35.630171 10.325837 3.513573 18.314767 4.423467 -4.888277 -0.995599 1.036684 -13.749587 -3.021012 -3.589624 -0.114596 -3.679830 4.536179 3.084576 16.085691 1.320161 -9.947032 -7.416780 -4.393264 20.929172 -5.981734 6.708213 0.000000 0.000000 0.000000
736.607199 96.882712 904.772062 88.347449 -10.038146 -3.271948 -0.972380 10.997584 -1.615997 -0.345581 -2.749587 -0.665611 -0.345522 2.540399 -0.697505 -0.256198 1.905697 -0.521606 3.508758 16.037388 -1.389383 7.032964 -6.236092 -3.855334 2.571262 -5.989620 -4.483164 23.057585 -19.659108 67.293304 108.752142 10.639230 10.238699 -21.275910 14.832746 7.329660 0.195034 -1.380640 -6.881355 -11.491070 3.501586 -74.766450 -10.242021 -41.747325 -93.325192 -26.182262 -35.607456 10.384071 3.503443 18.336316 4.424423 -4.880716 -0.992328 1.029312 -13.746014 -3.024862 -3.591375 -0.114618 -3.676556 4.542333 3.110140 16.115142 1.326140 -9.953932 -7.431009 -4.390224 20.919619 -5.976815 6.711214 0.000000 0.000000 0.000000
736.607255 96.882063 904.771030 88.340367 -10.060386 -3.271782 -0.977294 11.004485 -1.610340 -0.348037 -2.746517 -0.662817 -0.347979 2.543467 -0.694937 -0.258048 1.908000 -0.519669 3.511194 16.045892 -1.396429 7.039525 -6.219649 -3.868723 2.563748 -5.981501 -4.478293 23.103779 -19.664844 67.323184 108.662452 10.648913 10.214534 -21.249321 14.769525 7.283399 0.191855 -1.396466 -6.871211 -11.485385 3.523311 -74.752552 -10.246069 -41.793647 -93.318064 -26.185254 -35.584912 10.442084 3.493154 18.357369 4.424521 -4.871854 -0.988893 1.022447 -13.742023 -3.028619 -3.592914 -0.114651 -3.673603 4.548046 3.133810 16.143663 1.331279 -9.959323 -7.443892 -4.387388 20.911836 -5.972677 6.713886 0.000000 -0.000000 0.000000
736.607247 96.881505 904.770000 88.331810 -10.081809 -3.271296 -0.981233 11.010338 -1.604882 -0.350053 -2.743915 -0.660167 -0.349997 2.546068 -0.692474 -0.259569 1.909951 -0.517811 3.513562 16.054524 -1.402675 7.045663 -6.203030 -3.880592 2.555673 -5.972275 -4.473416 23.149526 -19.669194 67.356479 108.573285 10.660224 10.188199 -21.224680 14.711447 7.238137 0.189055 -1.411010 -6.862949 -11.474005 3.544245 -74.739581 -10.249222 -41.833209 -93.311078 -26.186544 -35.562257 10.498387 3.483178 18.377423 4.423672 -4.861920 -0.985353 1.016370 -13.737837 -3.032153 -3.594032 -0.114692 -3.671094 4.552962 3.154612 16.170356 1.335288 -9.963013 -7.454697 -4.384877 20.906302 -5.969567 6.716084 0.000000 0.000000 0.000000
736.607140 96.881083 904.769005 88.321983 -10.101906 -3.270417 -0.984043 11.014774 -1.599718 -0.351559 -2.741947 -0.657712 -0.351504 2.548035 -0.690157 -0.260706 1.911427 -0.516066 3.515696 16.063235 -1.407955 7.051011 -6.186350 -3.890575 2.546748 -5.961577 -4.468468 23.191726 -19.672380 67.394736 108.486042 10.670160 10.161409 -21.201844 14.659696 7.195106 0.186575 -1.424157 -6.857032 -11.456503 3.564242 -74.727331 -10.251227 -41.864745 -93.304089 -26.186023 -35.539213 10.551491 3.473986 18.395973 4.421790 -4.851150 -0.981770 1.011364 -13.733678 -3.035330 -3.594519 -0.114736 -3.669149 4.556729 3.171575 16.194327 1.337874 -9.964815 -7.462696 -4.382815 20.903495 -5.967732 6.717666 -0.000000 -0.000000 -0.000000
736.606898 96.880843 904.768075 88.311088 -10.120170 -3.269074 -0.985569 11.017419 -1.594938 -0.352481 -2.740778 -0.655501 -0.352427 2.549203 -0.688031 -0.261405 1.912302 -0.514467 3.517429 16.071977 -1.412103 7.055202 -6.169722 -3.898306 2.536680 -5.949043 -4.463388 23.227282 -19.674620 67.439503 108.402121 10.675730 10.135895 -21.180671 14.615458 7.155536 0.184360 -1.435792 -6.853923 -11.432446 3.583152 -74.715590 -10.251832 -41.886994 -93.296951 -26.183584 -35.515501 10.599913 3.466052 18.412516 4.418788 -4.839774 -0.978203 1.007710 -13.729768 -3.038018 -3.594167 -0.114778 -3.667888 4.558991 3.183725 16.214680 1.338745 -9.964538 -7.467159 -4.381320 20.903892 -5.967420 6.718489 0.000000 0.000000 0.000000
736.606499 96.880776 904.767188 88.298114 -10.137172 -3.267296 -0.985683 11.018586 -1.590412 -0.352769 -2.740271 -0.653482 -0.352715 2.549710 -0.686039 -0.261629 1.912682 -0.512972 3.519015 16.080800 -1.415228 7.058746 -6.153027 -3.904078 2.525785 -5.934987 -4.458290 23.266679 -19.674579 67.488139 108.315993 10.685792 10.103321 -21.162623 14.577596 7.116145 0.182391 -1.446059 -6.853839 -11.399448 3.600670 -74.703886 -10.251671 -41.899613 -93.290199 -26.179816 -35.491278 10.648414 3.458472 18.427327 4.414314 -4.826743 -0.974105 1.005399 -13.725616 -3.040441 -3.593087 -0.114829 -3.667361 4.559908 3.191225 16.232030 1.337923 -9.961896 -7.468154 -4.380428 20.908063 -5.968798 6.718598 0.000000 0.000000 0.000000
